<?xml version="1.0" encoding="UTF-8" standalone="no"?> <svg xmlns="http://www.w3.org/2000/svg" width="48.529" height="84.773" style="fill:#ffffff;" viewBox="0 0 48.529 84.773">
  <g id="Group_263" data-name="Group 263" transform="translate(-665.407 -2680.841)">
    <g id="Group_252" data-name="Group 252">
      <g id="Group_251" data-name="Group 251">
        <g id="Group_250" data-name="Group 250">
          <g id="Group_249" data-name="Group 249">
            <g id="Group_248" data-name="Group 248">
              <path id="Path_39" style="fill:#ffffff;" data-name="Path 39" d="M680.835,2705.03a2.114,2.114,0,1,0,3.947-1.517s-2.047-7.969-9.643-22.01a1.112,1.112,0,0,0-1.326-.607,1.1,1.1,0,0,0-.569,1.333C677,2697.75,680.835,2705.03,680.835,2705.03Z"/>
            </g>
          </g>
        </g>
      </g>
    </g>
    <g id="Group_257" data-name="Group 257">
      <g id="Group_256" data-name="Group 256">
        <g id="Group_255" data-name="Group 255">
          <g id="Group_254" data-name="Group 254">
            <g id="Group_253" data-name="Group 253">
              <path id="Path_40" data-name="Path 40" d="M687.07,2708.71a2.573,2.573,0,1,0-4.61,1.57l-.006.205a2.364,2.364,0,0,0-2.6.576s-5.879,5.756-14.242,19.356a1.111,1.111,0,0,0,.14,1.449,1.1,1.1,0,0,0,1.439-.171,122.938,122.938,0,0,0,15.163-16.825l-1.159,50.744h6.59L686.52,2710.3A2.55,2.55,0,0,0,687.07,2708.71Z"/>
            </g>
          </g>
        </g>
      </g>
    </g>
    <g id="Group_262" data-name="Group 262">
      <g id="Group_261" data-name="Group 261">
        <g id="Group_260" data-name="Group 260">
          <g id="Group_259" data-name="Group 259">
            <g id="Group_258" data-name="Group 258">
              <path style="fill:#ffffff;" id="Path_41" data-name="Path 41" d="M713.056,2712.2c-15.316-4.51-23.541-4.826-23.541-4.826a2.115,2.115,0,1,0-.661,4.177s7.927,2.214,23.885,2.657a1.017,1.017,0,1,0,.317-2.008Z"/>
            </g>
          </g>
        </g>
      </g>
    </g>
  </g>
</svg>
